<svg 
 xmlns="http://www.w3.org/2000/svg"
 xmlns:xlink="http://www.w3.org/1999/xlink"
 width="4.132in" height="4.132in">
<path fill-rule="evenodd"  stroke="rgb(0, 0, 0)" stroke-width="3px" stroke-linecap="butt" stroke-linejoin="miter" fill="none"
 d="M0.500,258.500 C4.115,268.083 9.922,276.649 17.500,283.500 C23.880,289.268 31.353,293.676 39.500,296.500 C112.500,296.500 185.500,296.500 258.500,296.500 C268.121,293.499 276.757,287.981 283.500,280.500 C289.890,273.411 294.357,264.808 296.500,255.500 C296.500,183.167 296.500,110.833 296.500,38.500 C294.450,32.328 291.435,26.605 287.500,21.500 C279.521,11.149 268.256,4.001 255.500,0.500 C184.833,0.500 114.167,0.500 43.500,0.500 C37.472,1.528 31.754,3.528 26.500,6.500 C13.651,13.770 4.792,26.171 0.500,40.500 C0.500,113.167 0.500,185.833 0.500,258.500 Z"/>
<path fill-rule="evenodd"  stroke="rgb(0, 0, 0)" stroke-width="3px" stroke-linecap="butt" stroke-linejoin="miter" fill="none"
 d="M172.500,244.500 L50.500,122.500 L172.500,0.500 L294.500,122.500 L172.500,244.500 ZM0.500,255.500 C15.167,224.500 29.833,193.500 44.500,162.500 L92.500,254.500 L0.500,255.500 Z"/>
<path fill-rule="evenodd"  stroke="rgb(0, 0, 0)" stroke-width="3px" stroke-linecap="butt" stroke-linejoin="miter" fill="none"
 d="M66.500,295.500 C78.687,292.191 89.356,284.874 96.500,274.500 C101.811,266.787 104.864,257.746 105.500,248.500 C106.680,231.343 99.221,216.258 89.500,206.500 C83.063,200.038 75.803,195.790 68.500,193.500 C60.006,190.837 49.815,190.342 38.500,193.500 C29.248,196.082 21.969,200.391 16.500,205.500 C12.075,209.634 7.903,215.134 4.500,222.500 C3.299,225.100 2.299,227.769 1.500,230.500 M295.500,230.500 C294.699,227.768 293.699,225.099 292.500,222.500 C289.005,214.927 284.823,209.514 280.500,205.500 C276.407,201.700 271.195,198.236 264.500,195.500 C259.624,193.507 254.036,192.086 247.500,191.500 C240.554,190.877 233.880,191.566 230.500,192.500 C227.498,193.329 221.720,196.005 216.500,199.500 C211.472,202.867 207.128,206.540 204.500,209.500 C198.477,216.285 194.340,224.630 192.500,233.500 C190.348,243.872 191.509,254.692 195.500,264.500 C198.422,271.681 202.867,278.185 208.500,283.500 C213.972,288.663 219.408,291.920 223.500,293.500 C225.776,294.379 228.112,295.045 230.500,295.500 M296.500,65.500 C294.802,71.622 292.120,77.348 288.500,82.500 C281.577,92.351 271.331,99.960 259.500,103.500 C252.506,105.592 245.733,106.150 239.500,105.500 C235.126,105.044 230.159,103.838 224.500,101.500 C217.994,98.812 213.120,95.659 209.500,92.500 C206.024,89.466 202.664,85.604 199.500,80.500 C195.689,74.351 193.574,68.698 192.500,63.500 C191.422,58.283 191.089,51.638 192.500,43.500 C194.442,32.299 198.395,24.775 202.500,19.500 C205.614,15.498 209.612,11.749 214.500,8.500 C218.044,6.144 222.059,4.115 226.500,2.500 C227.500,2.136 228.486,1.808 229.500,1.500 M1.500,67.500 C2.776,72.439 4.784,77.149 7.500,81.500 C11.193,87.417 16.475,92.958 23.500,97.500 C29.742,101.536 36.882,104.290 44.500,105.500 C53.015,106.852 60.329,106.216 66.500,104.500 C73.033,102.684 80.226,99.119 87.500,92.500 C96.062,84.709 103.918,72.846 105.500,58.500 C106.069,53.340 105.824,47.661 104.500,41.500 C102.859,33.862 100.006,27.588 96.500,22.500 C93.611,18.308 89.509,13.889 83.500,9.500 C78.912,6.149 73.878,3.466 68.500,1.500 "/>
</svg>